STARTFONT 2.1
FONT -DEC-MiriamFixed-Medium-R-Normal--10-100-75-75-M-60-ISO8859-8
SIZE 10 75 75
FONTBOUNDINGBOX 7 10 0 -2

STARTPROPERTIES 26
FONTNAME_REGISTRY ""
FAMILY_NAME "MiriamFixed"
FOUNDRY "DEC"
WEIGHT_NAME "Medium"
SLANT "R"
SETWIDTH_NAME "Normal"
ADD_STYLE_NAME ""
PIXEL_SIZE 10
RESOLUTION_X 75
RESOLUTION_Y 75
SPACING "M"
AVERAGE_WIDTH 60
CHARSET_REGISTRY "ISO8859"
CHARSET_ENCODING "8"
CHARSET_COLLECTIONS "ASCII ISO8859-8 "
FULL_NAME "MiriamFixed"
COPYRIGHT "Digital Israel"
CAP_HEIGHT 6
X_HEIGHT 5
_DEC_DEVICE_FONTNAMES "PS=MiriamFixed-ISOLatinHebrew"
QUAD_WIDTH 6
POINT_SIZE 100
WEIGHT 10
DEFAULT_CHAR 0
FONT_DESCENT 2
FONT_ASCENT 8
ENDPROPERTIES

CHARS 152

STARTCHAR space
ENCODING 32
SWIDTH 576 0
DWIDTH 6 0
BBX 1 1 0 0
BITMAP
00
ENDCHAR

STARTCHAR exclam
ENCODING 33
SWIDTH 576 0
DWIDTH 6 0
BBX 1 7 2 0
BITMAP
80
80
80
80
80
00
80
ENDCHAR

STARTCHAR quotedbl
ENCODING 34
SWIDTH 576 0
DWIDTH 6 0
BBX 3 3 1 4
BITMAP
A0
A0
A0
ENDCHAR

STARTCHAR numbersign
ENCODING 35
SWIDTH 576 0
DWIDTH 6 0
BBX 6 7 0 0
BITMAP
28
28
7C
28
FC
50
50
ENDCHAR

STARTCHAR dollar
ENCODING 36
SWIDTH 576 0
DWIDTH 6 0
BBX 4 8 1 -1
BITMAP
20
70
80
60
10
90
60
20
ENDCHAR

STARTCHAR percent
ENCODING 37
SWIDTH 576 0
DWIDTH 6 0
BBX 6 6 0 0
BITMAP
60
A8
D0
2C
54
18
ENDCHAR

STARTCHAR ampersand
ENCODING 38
SWIDTH 576 0
DWIDTH 6 0
BBX 6 6 0 0
BITMAP
30
40
60
94
88
74
ENDCHAR

STARTCHAR quoteright
ENCODING 39
SWIDTH 576 0
DWIDTH 6 0
BBX 2 3 2 4
BITMAP
40
40
80
ENDCHAR

STARTCHAR parenleft
ENCODING 40
SWIDTH 576 0
DWIDTH 6 0
BBX 3 9 2 -2
BITMAP
20
40
40
80
80
80
40
40
20
ENDCHAR

STARTCHAR parenright
ENCODING 41
SWIDTH 576 0
DWIDTH 6 0
BBX 3 9 1 -2
BITMAP
80
40
40
20
20
20
40
40
80
ENDCHAR

STARTCHAR asterisk
ENCODING 42
SWIDTH 576 0
DWIDTH 6 0
BBX 5 4 0 3
BITMAP
20
D8
20
50
ENDCHAR

STARTCHAR plus
ENCODING 43
SWIDTH 576 0
DWIDTH 6 0
BBX 5 5 0 1
BITMAP
20
20
F8
20
20
ENDCHAR

STARTCHAR comma
ENCODING 44
SWIDTH 576 0
DWIDTH 6 0
BBX 2 3 1 -2
BITMAP
40
40
80
ENDCHAR

STARTCHAR minus
ENCODING 45
SWIDTH 576 0
DWIDTH 6 0
BBX 4 1 1 3
BITMAP
F0
ENDCHAR

STARTCHAR period
ENCODING 46
SWIDTH 576 0
DWIDTH 6 0
BBX 1 1 2 0
BITMAP
80
ENDCHAR

STARTCHAR slash
ENCODING 47
SWIDTH 576 0
DWIDTH 6 0
BBX 5 8 0 -1
BITMAP
08
10
10
20
20
40
40
80
ENDCHAR

STARTCHAR zero
ENCODING 48
SWIDTH 576 0
DWIDTH 6 0
BBX 4 7 1 0
BITMAP
60
90
90
90
90
90
60
ENDCHAR

STARTCHAR one
ENCODING 49
SWIDTH 576 0
DWIDTH 6 0
BBX 4 7 1 0
BITMAP
20
E0
20
20
20
20
F0
ENDCHAR

STARTCHAR two
ENCODING 50
SWIDTH 576 0
DWIDTH 6 0
BBX 4 7 1 0
BITMAP
60
90
10
20
40
80
F0
ENDCHAR

STARTCHAR three
ENCODING 51
SWIDTH 576 0
DWIDTH 6 0
BBX 4 7 1 0
BITMAP
60
90
10
60
10
90
60
ENDCHAR

STARTCHAR four
ENCODING 52
SWIDTH 576 0
DWIDTH 6 0
BBX 5 7 0 0
BITMAP
10
30
50
90
F8
10
10
ENDCHAR

STARTCHAR five
ENCODING 53
SWIDTH 576 0
DWIDTH 6 0
BBX 4 7 1 0
BITMAP
F0
80
80
E0
10
10
E0
ENDCHAR

STARTCHAR six
ENCODING 54
SWIDTH 576 0
DWIDTH 6 0
BBX 4 7 1 0
BITMAP
70
80
80
E0
90
90
60
ENDCHAR

STARTCHAR seven
ENCODING 55
SWIDTH 576 0
DWIDTH 6 0
BBX 4 7 1 0
BITMAP
F0
90
10
20
20
40
40
ENDCHAR

STARTCHAR eight
ENCODING 56
SWIDTH 576 0
DWIDTH 6 0
BBX 4 7 1 0
BITMAP
60
90
90
60
90
90
60
ENDCHAR

STARTCHAR nine
ENCODING 57
SWIDTH 576 0
DWIDTH 6 0
BBX 4 7 1 0
BITMAP
60
90
90
70
10
10
E0
ENDCHAR

STARTCHAR colon
ENCODING 58
SWIDTH 576 0
DWIDTH 6 0
BBX 1 4 2 0
BITMAP
80
00
00
80
ENDCHAR

STARTCHAR semicolon
ENCODING 59
SWIDTH 576 0
DWIDTH 6 0
BBX 2 6 1 -2
BITMAP
40
00
00
40
40
80
ENDCHAR

STARTCHAR less
ENCODING 60
SWIDTH 576 0
DWIDTH 6 0
BBX 3 5 1 1
BITMAP
20
40
80
40
20
ENDCHAR

STARTCHAR equal
ENCODING 61
SWIDTH 576 0
DWIDTH 6 0
BBX 4 3 1 2
BITMAP
F0
00
F0
ENDCHAR

STARTCHAR greater
ENCODING 62
SWIDTH 576 0
DWIDTH 6 0
BBX 3 5 2 1
BITMAP
80
40
20
40
80
ENDCHAR

STARTCHAR question
ENCODING 63
SWIDTH 576 0
DWIDTH 6 0
BBX 4 6 1 0
BITMAP
60
90
20
40
00
40
ENDCHAR

STARTCHAR at
ENCODING 64
SWIDTH 576 0
DWIDTH 6 0
BBX 6 8 0 -1
BITMAP
30
48
98
A8
A8
9C
80
78
ENDCHAR

STARTCHAR A
ENCODING 65
SWIDTH 576 0
DWIDTH 6 0
BBX 6 6 0 0
BITMAP
70
28
48
78
48
CC
ENDCHAR

STARTCHAR B
ENCODING 66
SWIDTH 576 0
DWIDTH 6 0
BBX 5 6 0 0
BITMAP
F0
48
70
48
48
F0
ENDCHAR

STARTCHAR C
ENCODING 67
SWIDTH 576 0
DWIDTH 6 0
BBX 4 6 1 0
BITMAP
60
90
80
80
90
60
ENDCHAR

STARTCHAR D
ENCODING 68
SWIDTH 576 0
DWIDTH 6 0
BBX 5 6 0 0
BITMAP
F0
48
48
48
48
F0
ENDCHAR

STARTCHAR E
ENCODING 69
SWIDTH 576 0
DWIDTH 6 0
BBX 5 6 0 0
BITMAP
F8
48
70
40
48
F8
ENDCHAR

STARTCHAR F
ENCODING 70
SWIDTH 576 0
DWIDTH 6 0
BBX 5 6 0 0
BITMAP
F8
48
70
50
40
E0
ENDCHAR

STARTCHAR G
ENCODING 71
SWIDTH 576 0
DWIDTH 6 0
BBX 4 6 1 0
BITMAP
60
90
80
B0
90
60
ENDCHAR

STARTCHAR H
ENCODING 72
SWIDTH 576 0
DWIDTH 6 0
BBX 6 6 0 0
BITMAP
CC
48
78
48
48
CC
ENDCHAR

STARTCHAR I
ENCODING 73
SWIDTH 576 0
DWIDTH 6 0
BBX 5 6 0 0
BITMAP
F8
20
20
20
20
F8
ENDCHAR

STARTCHAR J
ENCODING 74
SWIDTH 576 0
DWIDTH 6 0
BBX 5 6 0 0
BITMAP
78
10
10
90
90
60
ENDCHAR

STARTCHAR K
ENCODING 75
SWIDTH 576 0
DWIDTH 6 0
BBX 6 6 0 0
BITMAP
D8
50
60
50
48
E4
ENDCHAR

STARTCHAR L
ENCODING 76
SWIDTH 576 0
DWIDTH 6 0
BBX 5 6 0 0
BITMAP
E0
40
40
40
48
F8
ENDCHAR

STARTCHAR M
ENCODING 77
SWIDTH 576 0
DWIDTH 6 0
BBX 5 6 0 0
BITMAP
88
D8
A8
A8
88
D8
ENDCHAR

STARTCHAR N
ENCODING 78
SWIDTH 576 0
DWIDTH 6 0
BBX 5 6 0 0
BITMAP
D8
48
68
58
48
C8
ENDCHAR

STARTCHAR O
ENCODING 79
SWIDTH 576 0
DWIDTH 6 0
BBX 4 6 1 0
BITMAP
60
90
90
90
90
60
ENDCHAR

STARTCHAR P
ENCODING 80
SWIDTH 576 0
DWIDTH 6 0
BBX 5 6 0 0
BITMAP
F0
48
48
70
40
E0
ENDCHAR

STARTCHAR Q
ENCODING 81
SWIDTH 576 0
DWIDTH 6 0
BBX 4 7 1 -1
BITMAP
60
90
90
90
90
60
10
ENDCHAR

STARTCHAR R
ENCODING 82
SWIDTH 576 0
DWIDTH 6 0
BBX 6 6 0 0
BITMAP
F0
48
48
70
48
E4
ENDCHAR

STARTCHAR S
ENCODING 83
SWIDTH 576 0
DWIDTH 6 0
BBX 4 6 1 0
BITMAP
70
80
60
10
90
E0
ENDCHAR

STARTCHAR T
ENCODING 84
SWIDTH 576 0
DWIDTH 6 0
BBX 5 6 0 0
BITMAP
F8
A8
20
20
20
70
ENDCHAR

STARTCHAR U
ENCODING 85
SWIDTH 576 0
DWIDTH 6 0
BBX 6 6 0 0
BITMAP
CC
48
48
48
48
30
ENDCHAR

STARTCHAR V
ENCODING 86
SWIDTH 576 0
DWIDTH 6 0
BBX 5 6 0 0
BITMAP
D8
88
50
50
50
20
ENDCHAR

STARTCHAR W
ENCODING 87
SWIDTH 576 0
DWIDTH 6 0
BBX 7 6 0 0
BITMAP
EE
44
54
54
28
28
ENDCHAR

STARTCHAR X
ENCODING 88
SWIDTH 576 0
DWIDTH 6 0
BBX 5 6 0 0
BITMAP
D8
50
20
20
50
D8
ENDCHAR

STARTCHAR Y
ENCODING 89
SWIDTH 576 0
DWIDTH 6 0
BBX 5 6 0 0
BITMAP
D8
88
50
20
20
70
ENDCHAR

STARTCHAR Z
ENCODING 90
SWIDTH 576 0
DWIDTH 6 0
BBX 4 6 1 0
BITMAP
F0
90
20
40
90
F0
ENDCHAR

STARTCHAR bracketleft
ENCODING 91
SWIDTH 576 0
DWIDTH 6 0
BBX 2 9 2 -2
BITMAP
C0
80
80
80
80
80
80
80
C0
ENDCHAR

STARTCHAR backslash
ENCODING 92
SWIDTH 576 0
DWIDTH 6 0
BBX 5 8 1 -1
BITMAP
80
40
40
20
20
10
10
08
ENDCHAR

STARTCHAR bracketright
ENCODING 93
SWIDTH 576 0
DWIDTH 6 0
BBX 2 9 2 -2
BITMAP
C0
40
40
40
40
40
40
40
C0
ENDCHAR

STARTCHAR asciicircum
ENCODING 94
SWIDTH 576 0
DWIDTH 6 0
BBX 5 3 0 4
BITMAP
20
50
88
ENDCHAR

STARTCHAR underscore
ENCODING 95
SWIDTH 576 0
DWIDTH 6 0
BBX 6 1 0 -2
BITMAP
FC
ENDCHAR

STARTCHAR quoteleft
ENCODING 96
SWIDTH 576 0
DWIDTH 6 0
BBX 2 3 2 4
BITMAP
80
80
40
ENDCHAR

STARTCHAR a
ENCODING 97
SWIDTH 576 0
DWIDTH 6 0
BBX 5 5 1 0
BITMAP
60
10
70
90
68
ENDCHAR

STARTCHAR b
ENCODING 98
SWIDTH 576 0
DWIDTH 6 0
BBX 5 7 0 0
BITMAP
C0
40
70
48
48
48
F0
ENDCHAR

STARTCHAR c
ENCODING 99
SWIDTH 576 0
DWIDTH 6 0
BBX 4 5 1 0
BITMAP
60
90
80
90
60
ENDCHAR

STARTCHAR d
ENCODING 100
SWIDTH 576 0
DWIDTH 6 0
BBX 5 7 1 0
BITMAP
30
10
70
90
90
90
68
ENDCHAR

STARTCHAR e
ENCODING 101
SWIDTH 576 0
DWIDTH 6 0
BBX 4 5 1 0
BITMAP
60
90
E0
80
70
ENDCHAR

STARTCHAR f
ENCODING 102
SWIDTH 576 0
DWIDTH 6 0
BBX 4 7 1 0
BITMAP
30
40
F0
40
40
40
F0
ENDCHAR

STARTCHAR g
ENCODING 103
SWIDTH 576 0
DWIDTH 6 0
BBX 5 7 1 -2
BITMAP
68
90
90
90
70
10
E0
ENDCHAR

STARTCHAR h
ENCODING 104
SWIDTH 576 0
DWIDTH 6 0
BBX 6 7 0 0
BITMAP
C0
40
70
48
48
48
EC
ENDCHAR

STARTCHAR i
ENCODING 105
SWIDTH 576 0
DWIDTH 6 0
BBX 5 7 1 0
BITMAP
20
00
60
20
20
20
F8
ENDCHAR

STARTCHAR j
ENCODING 106
SWIDTH 576 0
DWIDTH 6 0
BBX 3 9 1 -2
BITMAP
20
00
E0
20
20
20
20
20
C0
ENDCHAR

STARTCHAR k
ENCODING 107
SWIDTH 576 0
DWIDTH 6 0
BBX 5 7 0 0
BITMAP
C0
40
58
50
60
50
D8
ENDCHAR

STARTCHAR l
ENCODING 108
SWIDTH 576 0
DWIDTH 6 0
BBX 5 7 1 0
BITMAP
60
20
20
20
20
20
F8
ENDCHAR

STARTCHAR m
ENCODING 109
SWIDTH 576 0
DWIDTH 6 0
BBX 6 5 0 0
BITMAP
D0
A8
A8
A8
AC
ENDCHAR

STARTCHAR n
ENCODING 110
SWIDTH 576 0
DWIDTH 6 0
BBX 6 5 0 0
BITMAP
B0
48
48
48
EC
ENDCHAR

STARTCHAR o
ENCODING 111
SWIDTH 576 0
DWIDTH 6 0
BBX 4 5 1 0
BITMAP
60
90
90
90
60
ENDCHAR

STARTCHAR p
ENCODING 112
SWIDTH 576 0
DWIDTH 6 0
BBX 5 7 0 -2
BITMAP
B0
48
48
48
70
40
E0
ENDCHAR

STARTCHAR q
ENCODING 113
SWIDTH 576 0
DWIDTH 6 0
BBX 5 7 1 -2
BITMAP
68
90
90
90
70
10
38
ENDCHAR

STARTCHAR r
ENCODING 114
SWIDTH 576 0
DWIDTH 6 0
BBX 5 5 1 0
BITMAP
B8
40
40
40
F0
ENDCHAR

STARTCHAR s
ENCODING 115
SWIDTH 576 0
DWIDTH 6 0
BBX 4 5 1 0
BITMAP
70
80
60
10
E0
ENDCHAR

STARTCHAR t
ENCODING 116
SWIDTH 576 0
DWIDTH 6 0
BBX 5 7 1 0
BITMAP
40
40
F0
40
40
48
30
ENDCHAR

STARTCHAR u
ENCODING 117
SWIDTH 576 0
DWIDTH 6 0
BBX 6 5 0 0
BITMAP
D8
48
48
48
34
ENDCHAR

STARTCHAR v
ENCODING 118
SWIDTH 576 0
DWIDTH 6 0
BBX 6 5 0 0
BITMAP
CC
44
28
28
10
ENDCHAR

STARTCHAR w
ENCODING 119
SWIDTH 576 0
DWIDTH 6 0
BBX 6 5 0 0
BITMAP
AC
A8
A8
50
50
ENDCHAR

STARTCHAR x
ENCODING 120
SWIDTH 576 0
DWIDTH 6 0
BBX 5 5 0 0
BITMAP
D8
50
20
50
D8
ENDCHAR

STARTCHAR y
ENCODING 121
SWIDTH 576 0
DWIDTH 6 0
BBX 5 7 0 -2
BITMAP
D8
48
48
48
30
20
C0
ENDCHAR

STARTCHAR z
ENCODING 122
SWIDTH 576 0
DWIDTH 6 0
BBX 4 5 1 0
BITMAP
F0
20
40
90
F0
ENDCHAR

STARTCHAR braceleft
ENCODING 123
SWIDTH 576 0
DWIDTH 6 0
BBX 3 9 2 -2
BITMAP
20
40
40
40
80
40
40
40
20
ENDCHAR

STARTCHAR bar
ENCODING 124
SWIDTH 576 0
DWIDTH 6 0
BBX 1 9 2 -2
BITMAP
80
80
80
80
80
80
80
80
80
ENDCHAR

STARTCHAR braceright
ENCODING 125
SWIDTH 576 0
DWIDTH 6 0
BBX 3 9 1 -2
BITMAP
80
40
40
40
20
40
40
40
80
ENDCHAR

STARTCHAR asciitilde
ENCODING 126
SWIDTH 576 0
DWIDTH 6 0
BBX 4 2 1 3
BITMAP
50
A0
ENDCHAR

STARTCHAR cent
ENCODING 162
SWIDTH 576 0
DWIDTH 6 0
BBX 4 8 1 -1
BITMAP
20
20
70
80
80
70
20
20
ENDCHAR

STARTCHAR sterling
ENCODING 163
SWIDTH 576 0
DWIDTH 6 0
BBX 6 7 0 0
BITMAP
38
40
F8
20
20
44
FC
ENDCHAR

STARTCHAR currency
ENCODING 164
SWIDTH 576 0
DWIDTH 6 0
BBX 5 5 0 1
BITMAP
88
70
50
70
88
ENDCHAR

STARTCHAR yen
ENCODING 165
SWIDTH 576 0
DWIDTH 6 0
BBX 5 7 0 0
BITMAP
88
50
F8
20
F8
20
70
ENDCHAR

STARTCHAR brokenbar
ENCODING 166
SWIDTH 576 0
DWIDTH 6 0
BBX 1 9 2 -2
BITMAP
80
80
80
00
00
80
80
80
80
ENDCHAR

STARTCHAR section
ENCODING 167
SWIDTH 576 0
DWIDTH 6 0
BBX 4 7 1 -1
BITMAP
70
80
60
90
60
10
E0
ENDCHAR

STARTCHAR dieresis
ENCODING 168
SWIDTH 576 0
DWIDTH 6 0
BBX 3 1 1 6
BITMAP
A0
ENDCHAR

STARTCHAR copyright
ENCODING 169
SWIDTH 576 0
DWIDTH 6 0
BBX 6 7 0 0
BITMAP
30
48
B4
A4
B4
48
30
ENDCHAR

STARTCHAR multiply
ENCODING 170
SWIDTH 576 0
DWIDTH 6 0
BBX 5 5 0 1
BITMAP
88
50
20
50
88
ENDCHAR

STARTCHAR guillemotleft
ENCODING 171
SWIDTH 576 0
DWIDTH 6 0
BBX 5 3 0 1
BITMAP
48
90
48
ENDCHAR

STARTCHAR logicalnot
ENCODING 172
SWIDTH 576 0
DWIDTH 6 0
BBX 5 3 0 2
BITMAP
F8
08
08
ENDCHAR

STARTCHAR hyphen
ENCODING 173
SWIDTH 576 0
DWIDTH 6 0
BBX 4 1 1 3
BITMAP
F0
ENDCHAR

STARTCHAR registered
ENCODING 174
SWIDTH 576 0
DWIDTH 6 0
BBX 6 7 0 0
BITMAP
30
48
BC
B4
AC
48
30
ENDCHAR

STARTCHAR macron
ENCODING 175
SWIDTH 576 0
DWIDTH 6 0
BBX 4 1 1 6
BITMAP
F0
ENDCHAR

STARTCHAR degree
ENCODING 176
SWIDTH 576 0
DWIDTH 6 0
BBX 4 3 1 4
BITMAP
60
90
60
ENDCHAR

STARTCHAR plusminus
ENCODING 177
SWIDTH 576 0
DWIDTH 6 0
BBX 5 5 0 1
BITMAP
20
F8
20
00
F8
ENDCHAR

STARTCHAR twosuperior
ENCODING 178
SWIDTH 576 0
DWIDTH 6 0
BBX 3 4 1 3
BITMAP
60
A0
40
E0
ENDCHAR

STARTCHAR threesuperior
ENCODING 179
SWIDTH 576 0
DWIDTH 6 0
BBX 3 4 1 3
BITMAP
E0
40
20
C0
ENDCHAR

STARTCHAR acute
ENCODING 180
SWIDTH 576 0
DWIDTH 6 0
BBX 2 2 2 6
BITMAP
40
80
ENDCHAR

STARTCHAR mu
ENCODING 181
SWIDTH 576 0
DWIDTH 6 0
BBX 6 7 0 -2
BITMAP
D8
48
48
48
74
40
40
ENDCHAR

STARTCHAR paragraph
ENCODING 182
SWIDTH 576 0
DWIDTH 6 0
BBX 6 7 0 -1
BITMAP
7C
A8
A8
68
28
28
6C
ENDCHAR

STARTCHAR periodcentered
ENCODING 183
SWIDTH 576 0
DWIDTH 6 0
BBX 1 1 2 3
BITMAP
80
ENDCHAR

STARTCHAR cedilla
ENCODING 184
SWIDTH 576 0
DWIDTH 6 0
BBX 3 3 1 -2
BITMAP
40
20
C0
ENDCHAR

STARTCHAR onesuperior
ENCODING 185
SWIDTH 576 0
DWIDTH 6 0
BBX 3 4 1 3
BITMAP
C0
40
40
E0
ENDCHAR

STARTCHAR divide
ENCODING 186
SWIDTH 576 0
DWIDTH 6 0
BBX 5 5 0 1
BITMAP
20
00
F8
00
20
ENDCHAR

STARTCHAR guillemotright
ENCODING 187
SWIDTH 576 0
DWIDTH 6 0
BBX 5 3 1 1
BITMAP
90
48
90
ENDCHAR

STARTCHAR onequarter
ENCODING 188
SWIDTH 576 0
DWIDTH 6 0
BBX 7 9 0 -1
BITMAP
C0
42
44
E8
10
24
4C
9E
04
ENDCHAR

STARTCHAR onehalf
ENCODING 189
SWIDTH 576 0
DWIDTH 6 0
BBX 7 9 0 -1
BITMAP
C0
42
44
E8
10
2C
54
88
1C
ENDCHAR

STARTCHAR threequarters
ENCODING 190
SWIDTH 576 0
DWIDTH 6 0
BBX 7 9 0 -1
BITMAP
E0
42
24
C8
10
24
4C
9E
04
ENDCHAR

STARTCHAR dblunderscore
ENCODING 223
SWIDTH 576 0
DWIDTH 6 0
BBX 6 5 0 -1
BITMAP
00
00
FC
00
FC
ENDCHAR

STARTCHAR aleph
ENCODING 224
SWIDTH 576 0
DWIDTH 6 0
BBX 6 6 0 0
BITMAP
00
98
48
F0
90
C8
ENDCHAR

STARTCHAR beth
ENCODING 225
SWIDTH 576 0
DWIDTH 6 0
BBX 5 6 0 0
BITMAP
00
F0
10
10
10
F8
ENDCHAR

STARTCHAR gimmel
ENCODING 226
SWIDTH 576 0
DWIDTH 6 0
BBX 5 6 0 0
BITMAP
00
70
10
10
30
D0
ENDCHAR

STARTCHAR daleth
ENCODING 227
SWIDTH 576 0
DWIDTH 6 0
BBX 5 7 0 -1
BITMAP
00
78
10
10
10
10
00
ENDCHAR

STARTCHAR he
ENCODING 228
SWIDTH 576 0
DWIDTH 6 0
BBX 5 6 0 0
BITMAP
00
78
08
48
48
48
ENDCHAR

STARTCHAR waw
ENCODING 229
SWIDTH 576 0
DWIDTH 6 0
BBX 3 6 1 0
BITMAP
00
E0
20
20
20
20
ENDCHAR

STARTCHAR zayin
ENCODING 230
SWIDTH 576 0
DWIDTH 6 0
BBX 4 7 1 -1
BITMAP
00
F0
40
40
40
40
00
ENDCHAR

STARTCHAR het
ENCODING 231
SWIDTH 576 0
DWIDTH 6 0
BBX 6 6 0 0
BITMAP
00
78
48
48
48
48
ENDCHAR

STARTCHAR teth
ENCODING 232
SWIDTH 576 0
DWIDTH 6 0
BBX 6 6 0 0
BITMAP
00
D8
58
48
48
78
ENDCHAR

STARTCHAR yod
ENCODING 233
SWIDTH 576 0
DWIDTH 6 0
BBX 4 5 1 1
BITMAP
00
70
10
10
00
ENDCHAR

STARTCHAR kaphfinal
ENCODING 234
SWIDTH 576 0
DWIDTH 6 0
BBX 5 7 0 -1
BITMAP
00
F8
10
10
10
10
18
ENDCHAR

STARTCHAR kaph
ENCODING 235
SWIDTH 576 0
DWIDTH 6 0
BBX 4 7 1 -1
BITMAP
00
E0
10
10
10
E0
00
ENDCHAR

STARTCHAR lamed
ENCODING 236
SWIDTH 576 0
DWIDTH 6 0
BBX 5 7 0 0
BITMAP
40
40
78
08
10
20
30
ENDCHAR

STARTCHAR memfinal
ENCODING 237
SWIDTH 576 0
DWIDTH 6 0
BBX 5 6 0 0
BITMAP
00
F8
48
48
48
78
ENDCHAR

STARTCHAR mem
ENCODING 238
SWIDTH 576 0
DWIDTH 6 0
BBX 6 6 0 0
BITMAP
00
D8
68
48
48
58
ENDCHAR

STARTCHAR nunfinal
ENCODING 239
SWIDTH 576 0
DWIDTH 6 0
BBX 4 7 1 -1
BITMAP
00
E0
20
20
20
20
30
ENDCHAR

STARTCHAR nun
ENCODING 240
SWIDTH 576 0
DWIDTH 6 0
BBX 5 6 1 0
BITMAP
00
70
10
10
10
F0
ENDCHAR

STARTCHAR samekh
ENCODING 241
SWIDTH 576 0
DWIDTH 6 0
BBX 5 6 0 0
BITMAP
00
F8
48
48
48
30
ENDCHAR

STARTCHAR ayin
ENCODING 242
SWIDTH 576 0
DWIDTH 6 0
BBX 5 7 0 -1
BITMAP
00
D8
48
48
48
F0
00
ENDCHAR

STARTCHAR pefinal
ENCODING 243
SWIDTH 576 0
DWIDTH 6 0
BBX 5 7 0 -1
BITMAP
00
F0
90
90
D0
10
18
ENDCHAR

STARTCHAR pe
ENCODING 244
SWIDTH 576 0
DWIDTH 6 0
BBX 5 6 0 0
BITMAP
00
78
48
68
08
78
ENDCHAR

STARTCHAR zadikfinal
ENCODING 245
SWIDTH 576 0
DWIDTH 6 0
BBX 6 7 0 -1
BITMAP
00
D8
48
70
40
40
60
ENDCHAR

STARTCHAR zadik
ENCODING 246
SWIDTH 576 0
DWIDTH 6 0
BBX 5 6 0 0
BITMAP
00
D8
48
30
18
F8
ENDCHAR

STARTCHAR kof
ENCODING 247
SWIDTH 576 0
DWIDTH 6 0
BBX 5 7 0 -1
BITMAP
00
F8
08
48
50
58
40
ENDCHAR

STARTCHAR resh
ENCODING 248
SWIDTH 576 0
DWIDTH 6 0
BBX 5 6 0 0
BITMAP
00
78
08
08
08
08
ENDCHAR

STARTCHAR shin
ENCODING 249
SWIDTH 576 0
DWIDTH 6 0
BBX 6 6 0 0
BITMAP
00
A8
A8
A8
A8
F8
ENDCHAR

STARTCHAR taf
ENCODING 250
SWIDTH 576 0
DWIDTH 6 0
BBX 5 5 0 0
BITMAP
78
28
28
28
68
ENDCHAR
ENDFONT
